# xmcd CD database file
#
# Track frame offsets:
#	150
#	11372
#	24810
#	36290
#	48542
#	60960
#	73912
#	86022
#	99245
#	111152
#	122305
#	133040
#	145230
#
# Disc length: 2098 seconds
#
# Revision: 2
# Processed by: cddbd v1.4b41PL1 Copyright (c) Steve Scherf et al.
# Submitted via: Feurio! 1.52 - http://www.feurio.com
#
DISCID=a308300d
DTITLE=99 Posse - La vida que vendrà
DYEAR=1900
DGENRE=
TTITLE0=Comincia adesso
TTITLE1=Sfumature
TTITLE2=L'anguilla
TTITLE3=All'antimafia
TTITLE4=Esplosione imminente
TTITLE5=Sub
TTITLE6=Yankie go home
TTITLE7=Comuntwist
TTITLE8=Some say this some say that
TTITLE9=A una donna
TTITLE10=Povera vita mia
TTITLE11=La scelta
TTITLE12=El pueblo unido jamas sera vencido
EXTD=
EXTT0=
EXTT1=
EXTT2=
EXTT3=
EXTT4=
EXTT5=
EXTT6=
EXTT7=
EXTT8=
EXTT9=
EXTT10=
EXTT11=
EXTT12=
PLAYORDER=
